<svg xmlns="http://www.w3.org/2000/svg" viewBox="0 0 744.33 145.85"><defs><style>.cls-1{fill:#020203;}</style></defs><title>Recurso 1</title><g id="Capa_2" data-name="Capa 2"><g id="Capa_1-2" data-name="Capa 1"><path class="cls-1" d="M91.87.69c0-.46-.4-.69-1.21-.69a12.94,12.94,0,0,1-9.82,4l-50.5-.34q-8.28-.17-10.69.69a46.2,46.2,0,0,0-7.93,7.76,3.47,3.47,0,0,1-1,2.41l-1.9,2.41Q0,27.4,0,28.61c0,.46.06.72.17.78a1.32,1.32,0,0,1,.35.26h1q3.11-3.45,6.21-6.72A7.57,7.57,0,0,1,13.1,21l29.3.34c.35.35.52.58.52.69q-4.48,4.14-5,7.41.16-1,.17,6.73c0,1.15-.06,3-.17,5.51s.35,65,.35,65v1.21a12,12,0,0,0,.34,2.59c.69,1.16,4.48-2.42,4.48-2.42q3.79-4.47,7.41-9.13,4-5.52,4-9.14V66.19s-.32-10.48-.35-16V39.3c0-.23-.06-1.23-.17-3s-.17-2.84-.17-3.19V21.89l1-.86H65.5c3.67,0,5.92-.23,6.72-.69a63.74,63.74,0,0,0,8.27-7.76L82.91,10Q91.87,1.21,91.87.69Z"/><path class="cls-1" d="M161.33,84.49a8.57,8.57,0,0,1-1.89-1.55V55c0-1.15-2.24-2.25-6.72-3.28a19.81,19.81,0,0,1-4.83-2.07,34.76,34.76,0,0,1,3.79-2.76c.46-.91,2.41-2.81,5.86-5.68q4.14-3.45,4-6c0-3.67.05-6.37.17-8.1s.17-2.35.17-1.89a126.33,126.33,0,0,0-.52-13.45A67.4,67.4,0,0,0,152.54,8c-.23,0-2-.54-5.25-1.64s-5-1.64-5.26-1.64a1.83,1.83,0,0,0-.86.18,22.39,22.39,0,0,0-5.86,3.79q-4,4-5.86,6.2l-.35-1c-.85-2.82-4.88-6.09-5.69-6.2A77.33,77.33,0,0,1,116,3.31,35.18,35.18,0,0,0,111.18.38q-1.91,0-11,8.44c-2.41,2.3-3.62,4-3.62,5.17q0,1,5,4.14c2,1.27,3.91,2.47,5.86,3.62,0,.34-.69,10.28-.69,10.51,0,0,.35,22.53.35,23.45q.17,14.82,0,22.75.17,6.56.17,6.72a8.39,8.39,0,0,1-1.89-.17,4.93,4.93,0,0,0-.87-.18c-.92,0-2.75,1.56-5.51,4.66q-7.06,7.94-7.07,10c0,.69,1.15,1.49,3.45,2.41,1.26.57,2.54,1,3.79,1.55,1.44.58,8.1,2.93,8.1,2.93q9.66,4,9.14,4c.23,0,1.12-.8,2.67-2.41s4.16-5.34,6.46-8.1,3.39-4.65,3.28-5.69a26.48,26.48,0,0,0-4.48-1.89c-1.73-.58-2.65-1.21-2.76-1.9.92-1.26,1.66-2.24,2.24-2.93a43.81,43.81,0,0,0,.34-6.72V71.22a67.72,67.72,0,0,1-.17-7.93c.23-.35.46-.52.69-.52a86.75,86.75,0,0,0,16.55,5.69c1,.23,1.55.69,1.55,1.38V92.59a25.43,25.43,0,0,0-2.93,4.14q10.52,5,15.51,6.72c.57.69,4.31,2.07,5,2.41,1.21.49,2.2.87,3,1.15a3.48,3.48,0,0,0,3.36-.57c1.53-1.22,3.83-3,3.83-3.16q9.14-7.41,9.14-9.83Q179.61,91.91,161.33,84.49Zm-19.3-36c-1.26-.15-5.12-1.44-5.34-1.21L124.1,59.84c-.11-6.89-.17-13.56-.17-13.79V33.3a9.32,9.32,0,0,1-.17-2c-.12-1.66-.17-4.33-.17-8q-.53-4.65,4.48-7.41a6.44,6.44,0,0,0-1.55,2.58,11.49,11.49,0,0,0,1.2,1.38q10,3.11,15.86,5L144.27,35c0,.22-.14,4.53-.34,13l.34.52Z"/><path class="cls-1" d="M246.2,45.79c-.17.18-.25.09-.25-.26V13.82a2.41,2.41,0,0,0-.69-1.73q-3.54-1.9-5.85-3.07a1.14,1.14,0,0,0-1.38.29L225.8,24.09a1,1,0,0,0,.3,1.46,6.72,6.72,0,0,1,2.29,1.58c.46.81.69,3.73.69,8.79,0,3.91-.23,15.63-.34,16.55v8.62a21.12,21.12,0,0,0,.25,2.5c.18,1.2.26,1.92.26,2.15V88h-2.41q.69,0-6.64-2.42a61.29,61.29,0,0,1-8.7-3.27,6,6,0,0,0,.86-2.07q0-.52-.17-19.13a23,23,0,0,1,.17-2.59c0-4.14-.06-7.35-.17-9.65.11-.23-.35-3.62-.35-4l.07-19.77a2,2,0,0,1,.23-.93l6.92-13.35a1.54,1.54,0,0,0-.91-2.18c-3.43-1.06-8.51-2.7-10-3.28q-10.35-4.3-9.83-4.31c-.57,0-2.1,1.24-4.57,3.71S189,9.19,188.72,9.51q-4.49,5.52-4.65,6.72a18.13,18.13,0,0,0,5,2.59,27.14,27.14,0,0,1,6.83,3.55c0,1.38-.28,5.3-.28,5.41V65c0,.23.12,1.87.35,4.91s.34,4.6.34,4.66.12,1,.35,2.84a28.08,28.08,0,0,1,0,4.31,9.09,9.09,0,0,1-.69,4,21.41,21.41,0,0,1-4.31,5.51c-2.18,2.18-3.28,3.39-3.28,3.62v1l30.17,10.51a26.06,26.06,0,0,1,4.39,1.64,33.21,33.21,0,0,0,4.23,1.63c.34,0,.94-.43,1.81-1.29a27.24,27.24,0,0,0,2.13-2.65l1.23-1.4q14.13-16.55,14.13-18.1V46.05C246.46,45.71,246.38,45.62,246.2,45.79Z"/><path class="cls-1" d="M316.71,55.38l-.12,0C316.67,55.38,316.71,55.39,316.71,55.38Z"/><path class="cls-1" d="M287.42,16.24a36.5,36.5,0,0,1,3.08-5.73A1.27,1.27,0,0,0,290,8.63c-1.86-.86-5.24-2.38-8.15-3.85q-6.63-3.36-8.19-3.36-1.72,0-9.13,7.93c-3,3.21-4.48,5.46-4.48,6.72,0,.69.74,1.41,2.24,2.15s3.1,1.47,4.82,2.16c2.88,1.15,4.31,2.07,4.31,2.76a9.43,9.43,0,0,1-.69,2.06,7.93,7.93,0,0,0-.69,2.42,139.64,139.64,0,0,0,.52,18.1s.17,3.21.17,3.44l.35,25.69c0,2-.52,7.75-.52,7.75a16,16,0,0,0-4.31,4.22q-1.73,2.5-3.44,4.74-5.36,6.73-5.35,8.62,0,1.21,5.86,2.07l6.9.69c4,.81,7.18,1.49,9.48,2.07q12.24,1.72,12.75,1.9c.35.11,16.26,1.89,16.72,1.89a29.71,29.71,0,0,1,3.41.5,19,19,0,0,0,2-.5c1.21-.34,2.56-2.81,2.33-2.58q1.55-2.41,2.41-3.62.35-.34,4-5.18a10.12,10.12,0,0,0,2.24-4.48c-.69-.57-1.1-.91-1.21-1L296.9,87.77q-7.06-1.2-10.51-1.89c-.58-.46-.86-.81-.86-1a13,13,0,0,0,1.37-6.43c0-2,0-4,0-6q.51-10.68.34-11.72a1.88,1.88,0,0,1,1.38-.86c.35,0,2.13.17,5.34.52s4.94.51,5.17.51q.87,0,9.14-11l2.41-2.41a3.26,3.26,0,0,0,1.21-2.07c0-1.38-.58-2.12-1.72-2.24q-12.93-1.73-15.86-1.72c-1,0-2.19.8-3.45,2.41s-2.3,2.41-3.1,2.41c.11,0-.23-.17-1-.51V22.1a3.71,3.71,0,0,1,1.38-.17c.35,0,3.19.43,8.54,1.29s8.18,1.3,8.53,1.3a10.16,10.16,0,0,0,1.38-.18h1.2c5.86.58,8.22.86,7.07.86a3.42,3.42,0,0,0,1.55-.17Q319.49,23.14,329,10.9c.46-.8.81-1.44,1-1.9-1.38-1.84-31.89-4-31.89-4Q297.6,5,287.42,16.24Z"/><path class="cls-1" d="M460.88,10.89A98.75,98.75,0,0,1,444.5,10q-4.14-.51-12.41-1.89c-4.82-.81-7.3-1.21-7.41-1.21q-1.73,0-4.48,2.76c-1.27,1.26-2.47,2.53-3.62,3.79a7.37,7.37,0,0,1,.34-3.27q-3.1-.69-10.68-4.31c-5.06-2.42-7.65-3.62-7.76-3.62-.58,0-2.47,1.37-5.69,4.13l-5.69,5a20.11,20.11,0,0,1-1.72,2.5A7.58,7.58,0,0,0,384,16.06q0,1.38,5.34,4.13,3.63,1.72,7.24,3.62c.58.35.87.69.87,1a6.59,6.59,0,0,0-1.9,2.58c-.23,2.07.23,26.2.34,27.24l.35,28.26V99.14c0,5-.06,8.16-.17,9.3,0,.23.15,1.92,1.38,2.42a3.73,3.73,0,0,0,2.75-1q4.83-5.85,6.9-9,5.34-6,5.51-7.58a77.67,77.67,0,0,0-.17-9q-.17-1-.17-11.55V64.49a9.57,9.57,0,0,0-.17-1,1.51,1.51,0,0,1,0-1c.11-.23.51-.34,1.2-.34.35,0,2.7.31,7.07.94s6.72.95,7.07.95,2.47-2.12,6-6.38q8.28-9.65,8.27-9.3v-1q-1.2-1.2-8.27-2.06l-9.31-.69c-.92-.12-2.35-.38-4.31-.78s-3-.6-3.27-.6a51.13,51.13,0,0,1-4.31,3.44,1.61,1.61,0,0,1-.52-1.2V33.81a105.22,105.22,0,0,1-.34-10.52,1.4,1.4,0,0,1,.86-.51q.35,0,6.12,1.29a59.33,59.33,0,0,0,8.7,1.46q15.17,1.91,15.69,1.9c2.41,0,3.79-.17,4.13-.51a70.09,70.09,0,0,0,8.8-8.37q5.51-5.94,5.51-6.63a1.08,1.08,0,0,0-.17-.6A.82.82,0,0,1,460.88,10.89Z"/><path class="cls-1" d="M536.47,91.9q-8.79-4-10.69-4.49a3.68,3.68,0,0,1-.51-1.12,20.53,20.53,0,0,1-.43-2.49c-.18-1.27-.26-2-.26-2.07V63.11q0,1.22-.17-6.2-.18-6.21,0-9.31a20.25,20.25,0,0,0-.35-3.62q-.34-16.2-.34-15.86V21.57a6.53,6.53,0,0,1,.6-2.15,7.55,7.55,0,0,0,.6-1.81,1.63,1.63,0,0,0-.69-1.38A115.53,115.53,0,0,1,512,9.33c.23-.11-2.7-1.43-2.93-1.55a81.14,81.14,0,0,1-8.45-4c-3.56-2-5.4-2.93-5.51-2.93a21.42,21.42,0,0,0-3.8,2.76,33.08,33.08,0,0,1-5.51,4.13c-1.61.35-12.76,11.44-15.86,14a5.09,5.09,0,0,0-.17,1.55q0,.36.69,10,.51,10.17.51,12.24c-.34.69.63,6,.52,7.58a42.33,42.33,0,0,1-4.14,1.38q-.69.34-6.37,7.07t-5.69,8.27a1.88,1.88,0,0,0,.17.87,1.4,1.4,0,0,1,.17.51c2.18.46,7.42.63,15.69.52a15.08,15.08,0,0,1,.69,4q0,2.25.6,7.76c.4,3.68.6,5.57.6,5.69,0,2.18-.28,3.51-.86,4q-18.44-9.64-19.13-9.65-1.73,0-4.65,3.45Q439.42,97.42,439.43,99c0,.46.06.64.17.52a12.72,12.72,0,0,0,4,3.1c.8.24,4.31,2,10.51,5.35q7.92,4.3,9.14,4.31c.8,0,1.86-.78,3.18-2.33a81.35,81.35,0,0,1,6.81-7.84q10.52-9.82,15.52-15a4.89,4.89,0,0,0,1.2-3.52s-.08-1-.17-2.86c-.11-2.29-.17-5.34-.17-9.13h17.24a22.62,22.62,0,0,1,.68,7.41q.35,4.31.35,9.65a3.55,3.55,0,0,1-.17,1.55q-5.87,7.76-5.86,7.93c0,1,2.24,2.47,6.72,4.31,1.49.81,2.59,1.38,3.27,1.72a29.94,29.94,0,0,1,5.35,2.25c1.72,1,5,1.92,8,3.36a31.71,31.71,0,0,0,5.09,2.15c.46,0,1.49-.8,3.1-2.41l2.93-2.93q1-1.56,4.48-6a24.35,24.35,0,0,0,2.93-4Q543.71,95.35,536.47,91.9Zm-30-38.27h-3.1a7.71,7.71,0,0,0-1.21.17A7.13,7.13,0,0,1,501,54a38.07,38.07,0,0,1-6-.18q-4.65-.51-6.2-.51c-.12-2.53-.35-9.42-.35-9.66V36.4l-1-16.55q9.3,4.65,12.41,6.38c1.38.8,2.78,1.66,4.22,2.58a4.15,4.15,0,0,1,2.16,3.62,89.45,89.45,0,0,0,.08,9c.13,1.73.21,2.66.24,2.81C506.41,45.13,506.48,49.49,506.48,53.63Z"/><path class="cls-1" d="M583.22,92.21c-1.49-.58-3-1.18-4.39-1.81a5.93,5.93,0,0,1-2.67-1.81q4.67-7.08,4.82-8.12a2.91,2.91,0,0,0,.09-1.29,11.07,11.07,0,0,1-.09-1.12c-.23-8.17-.28-41.15-.51-49.9-.12-1-.32-2.67-.61-4.92s-.43-3.42-.43-3.54q0-4.14,5.35-9c.34-1.83-.52-3.16-2.59-4l-4.14-1q-11-3.79-14-3.8c-.69,0-2.13,1.1-4.31,3.28a46.4,46.4,0,0,1-3.36,3.37,14.3,14.3,0,0,0-3,3.54q-3.63,4-3.63,4.66A1.5,1.5,0,0,0,551,18.32l8.2,2.25c.93.11,1.83.25,2.7.43s1.54.89,2,2.15v47q0,6.74.13,7.34c.08.41,0,5-.19,8a35.67,35.67,0,0,0-10.8,13c-1,2.07-1.55,3-1.55,2.76q0,1.38,11.55,5.18c.69.46,5.63,2.59,7.93,3.62a33,33,0,0,0,3.1,1.21q2.07,0,4.65-3.28c1.27-2.07,8.62-11.62,8.62-12.43S586,93.59,583.22,92.21Z"/><path class="cls-1" d="M670.56,11.18q8.93-8.75,8.92-9.26,0-.69-1.2-.69a12.91,12.91,0,0,1-9.78,4l-50.27-.35q-8.24-.17-10.63.69a46.22,46.22,0,0,0-7.9,7.72c.12.57-.23,1.37-1,2.4L596.79,18Q588,28.51,588,29.71c0,.46.06.72.17.77a1.54,1.54,0,0,1,.34.26h1q3.09-3.43,6.18-6.69a7.54,7.54,0,0,1,5.32-1.89l29.16.34c.35.35.52.58.52.69-3,2.75-4.63,5.21-5,7.38.12-.69.17,1.54.17,6.69,0,1.14-.05,3-.17,5.49v5.49c0,.34.35,4.52.35,4.63v55.76c0,.91.78,3.27,1.71,3.26a2.21,2.21,0,0,0,1.29-.68c.51-.46,6.78-8.41,9.18-11.5q3.95-5.49,3.94-9.09V67.11l-.34-26.76c0-.23-.06-1.23-.17-3s-.17-2.84-.17-3.18V23l1-.86h10.64q5.47,0,6.69-.68C663.81,18.28,670.56,11.18,670.56,11.18Z"/><path class="cls-1" d="M744,107.73l.09-7.15c-.23-3.52-.43-5.39-.43-5.62V79l-1-22.81a16.07,16.07,0,0,0-.24-3.64c0-.75-.07-1.72-.15-2.93-.11-1.81-.17-2.78-.17-2.89s-.11-17.19-.34-17.87,0-9.19,0-9.19a11.43,11.43,0,0,1,2.56-2.89v-1.2a28,28,0,0,0-6.81-3.06q-3.57-1-7-1.87c-4-1.25-5.62-1.87-4.93-1.87a9.28,9.28,0,0,0-1.36.34q-6.3,6-6.81,6.46a77.69,77.69,0,0,0-6.3,7.66,117.39,117.39,0,0,0,15,6.3c0,.57,0,1.45.17,2.64s.17,1.9.17,2.12V44.72c-5.87-1.76-8.73-2.7-8.56-2.83-.72.08-2.24,1.17-4.58,3.3s-3.78,3.32-4,3.32-.67-.25-1.07-.71c0,0-.08-.09-.12-.15,0-.79-.06-2.09-.17-3.91s-.17-2.78-.17-2.89-.12-17.19-.35-17.87,0-9.19,0-9.19A11.64,11.64,0,0,1,710,10.9V9.7a27.69,27.69,0,0,0-6.81-3.06q-3.57-1-7-1.87-6-1.87-4.93-1.87a9.28,9.28,0,0,0-1.36.34q-6.3,6-6.81,6.46a79.17,79.17,0,0,0-6.3,7.66,118,118,0,0,0,15,6.3c0,.57.05,1.45.17,2.64s.17,1.9.17,2.12V47.65a1.19,1.19,0,0,0,0,.15c-.07,2.28.36,33.4-.16,42.74a2,2,0,0,1-.68.68c-2.27-1.13-4.6-2.27-7-3.4q-4.59-2.22-6.3-2.22c-.91,0-2.66,1.48-5.27,4.43a65.84,65.84,0,0,0-5.79,7.32q-2.21,3.74-2.21,3.23c0,.68,2,2,6,4.08a17.27,17.27,0,0,1,2.72,2c9.37,3.4,14.14,5.25,14.36,5.56.17,0,.58-.15,1.3-.29a44.64,44.64,0,0,0,4.93-5.27q5.79-8,11.74-16c1.36-2.15,2-6.3,2-12.42V69.78c0-4.88.05-8.23.17-10,.11-.34.22-.51.34-.51q11.22,3.41,16.84,4.93a1.58,1.58,0,0,1,1,1.7q.51,6.81.68,5.62a18.59,18.59,0,0,0-.17,4.25c.23,1.93.34,2.67.34,2.22V88.67c0-.57.12,1.59.35,6.46q.33,6.65.17,9.87c0,.34.17,2.9.17,3.24,0,.91.17,3.88.51,8.93s.51,7.63.51,7.74q0,7.32-.51,8.68-.69,2.22-7.66,11.23v1h1.19q19.23-21.79,22.12-25.7c.34-.57.45-2,.34-4.43A64,64,0,0,1,744,107.73Z"/><path class="cls-1" d="M703.46,56.59c.07,0,.08,0,.06-.06S703.37,56.59,703.46,56.59Z"/></g></g></svg>